<svg xmlns="http://www.w3.org/2000/svg" viewBox="0 0 25 24" width="24" height="24" aria-hidden="true">
  <path fill="#fff" stroke="#fff" stroke-width="0.9" d="M23.758 13.915L21.225 11.263C21.053 11.083 20.822 10.995 20.593 11c-.208.005-.415.088-.575.247l-2.6 2.585c-.338.336-.345.888-.016 1.232.329.344.87.352 1.207.016l1.066-1.06c.021-.032.072-.08.132-.132-.225 3.287-2.625 5.977-5.866 6.481-2.517.391-5.036-.653-6.576-2.726-.168-.227-.444-.341-.72-.298-.124.019-.243.07-.344.148-.222.172-.334.454-.292.736.019.126.069.247.145.35 1.877 2.527 4.948 3.799 8.016 3.322 3.996-.622 6.95-3.968 7.165-8.038.029.029.052.057.063.078l1.137 1.191c.33.343.87.351 1.207.016.338-.336.345-.888.016-1.233z"/>
  <path fill="#fff" stroke="#fff" stroke-width="0.9" d="M7.602 9.952C7.273 9.609 6.732 9.601 6.394 9.936L5.327 10.991c-.022.035-.079.087-.145.144.202-3.298 2.612-6.005 5.872-6.51 2.518-.39 5.039.65 6.58 2.716.169.225.445.339.721.296.124-.019.243-.07.344-.147.222-.172.334-.452.292-.733-.019-.126-.069-.247-.145-.349C16.968 3.891 13.895 2.623 10.825 3.099 6.817 3.719 3.856 7.068 3.653 11.135c-.022-.024-.04-.047-.049-.064L2.466 9.885C2.136 9.543 1.595 9.535 1.258 9.869.92 10.203.913 10.753 1.242 11.096l2.535 2.642C3.95 13.918 4.18 14.006 4.409 14c.208-.006.414-.087.575-.247l2.602-2.574c.338-.334.345-.884.016-1.227z"/>
</svg>
